<svg xmlns="http://www.w3.org/2000/svg" viewBox="0 0 512 512" role="img" aria-label="S2A">
  <defs><linearGradient id="gold" x1="0" y1="1" x2="1" y2="0"><stop offset="0" stop-color="#B8905E"/><stop offset="0.5" stop-color="#CBA87D"/><stop offset="1" stop-color="#E6CA9F"/></linearGradient></defs>
  <rect width="512" height="512" rx="112" fill="#0F1E2E"/>
  <g transform="translate(256,256)">
    <g transform="translate(-182.685, 84.5) scale(0.19,-0.19)">
      <g fill="#FFFFFF"><g transform="translate(0,0)"><path d="M42 210H224Q228 171 251.0 150.5Q274 130 311 130Q349 130 371.0 147.5Q393 165 393 196Q393 222 375.5 239.0Q358 256 332.5 267.0Q307 278 260 292Q192 313 149.0 334.0Q106 355 75.0 396.0Q44 437 44 503Q44 601 115.0 656.5Q186 712 300 712Q416 712 487.0 656.5Q558 601 563 502H378Q376 536 353.0 555.5Q330 575 294 575Q263 575 244.0 558.5Q225 542 225 511Q225 477 257.0 458.0Q289 439 357 417Q425 394 467.5 373.0Q510 352 541.0 312.0Q572 272 572 209Q572 149 541.5 100.0Q511 51 453.0 22.0Q395 -7 316 -7Q239 -7 178.0 18.0Q117 43 80.5 92.0Q44 141 42 210Z"/></g><g transform="translate(615,0)"><path d="M70 162Q168 243 224.5 295.0Q281 347 320.0 404.0Q359 461 359 515Q359 556 340.0 579.0Q321 602 283 602Q245 602 223.5 573.5Q202 545 202 493H37Q39 578 73.5 635.0Q108 692 164.5 719.0Q221 746 290 746Q409 746 469.5 685.0Q530 624 530 526Q530 419 457.0 327.5Q384 236 271 149H541V10H39V137Q73 164 70 162Z"/></g><g transform="translate(1186,0)"><path d="M499 124H237L195 0H16L270 702H468L722 0H541ZM455 256 368 513 282 256Z"/></g></g>
      <path d="M 120 40 C 560 -70 1080 -20 1420 220 C 1560 320 1660 420 1740 505" fill="none" stroke="url(#gold)" stroke-width="86" stroke-linecap="round"/>
      <path d="M 1648 560 L 2010 795 L 1858 402 L 1742 505 Z" fill="url(#gold)"/>
    </g>
  </g>
</svg>